<svg width="24px" height="24px" viewBox="0 0 24 24" version="1.1" xmlns="http://www.w3.org/2000/svg" xmlns:xlink="http://www.w3.org/1999/xlink">
  <g id="Home" stroke="none" stroke-width="1" fill="none" fill-rule="evenodd">
    <g id="Desktop" transform="translate(-406.000000, -983.000000)" fill="#C23230">
      <g id="Skills" transform="translate(0.000000, 734.000000)">
        <g id="Group-10" transform="translate(42.000000, 245.000000)">
          <g id="Group-8" transform="translate(364.000000, 4.000000)">
            <g id="Die5">
              <path d="M20.7272729,23.9999995 L3.27272742,23.9999995 L3.27272727,23.9999995 C1.46524909,23.9999994 0,22.5347504 0,20.7272722 C0,20.7272722 0,20.7272722 0,20.7272722 L0,3.27272678 L3.48811888e-14,3.27272727 C-2.7292142e-07,1.46524909 1.46524909,0 3.27272727,0 L20.7272727,0 L20.7272726,0 C22.5347508,-7.90074546e-08 23.9999999,1.46524909 23.9999999,3.27272727 L23.9999999,20.7272727 C23.9999999,22.5347509 22.5347508,24 20.7272726,24 L20.7272729,23.9999995 Z M5.4545456,3.27272678 C4.24956005,3.27272683 3.27272732,4.24955951 3.27272732,5.45454496 C3.27272737,6.65953041 4.24956005,7.63636314 5.4545455,7.63636314 C6.65953096,7.63636309 7.63636368,6.65953041 7.63636368,5.45454496 C7.63636368,4.2495596 6.65953096,3.27272687 5.4545455,3.27272687 Z M5.4545456,16.3636359 C4.24956005,16.3636359 3.27272732,17.3404686 3.27272732,18.5454541 C3.27272737,19.7504395 4.24956005,20.7272722 5.4545455,20.7272722 C6.65953096,20.7272722 7.63636368,19.7504395 7.63636368,18.5454541 C7.63636368,17.3404687 6.65953096,16.363636 5.4545455,16.363636 Z M12.0000001,9.81818132 C10.7950146,9.81818138 9.81818187,10.7950141 9.81818187,11.9999995 C9.81818192,13.204985 10.7950146,14.1818177 12,14.1818177 C13.2049855,14.1818176 14.1818182,13.204985 14.1818182,11.9999995 C14.1818182,10.7950141 13.2049855,9.81818142 12,9.81818142 Z M18.5454547,3.27272678 C17.3404691,3.27272683 16.3636364,4.24955951 16.3636364,5.45454496 C16.3636365,6.65953041 17.3404691,7.63636314 18.5454546,7.63636314 C19.75044,7.63636309 20.7272728,6.65953041 20.7272728,5.45454496 C20.7272728,4.2495596 19.75044,3.27272687 18.5454546,3.27272687 Z M18.5454547,16.3636359 C17.3404691,16.3636359 16.3636364,17.3404686 16.3636364,18.5454541 C16.3636365,19.7504395 17.3404691,20.7272722 18.5454546,20.7272722 C19.75044,20.7272722 20.7272728,19.7504395 20.7272728,18.5454541 C20.7272728,17.3404687 19.75044,16.363636 18.5454546,16.363636 Z" id="Shape"></path>
            </g>
          </g>
        </g>
      </g>
    </g>
  </g>
</svg>