<svg width="28px" height="31px" viewBox="0 0 28 31" version="1.1" xmlns="http://www.w3.org/2000/svg" xmlns:xlink="http://www.w3.org/1999/xlink">
  <g id="Home" stroke="none" stroke-width="1" fill="none" fill-rule="evenodd">
      <g id="Desktop" transform="translate(-42.000000, -979.000000)" fill="#1B929B">
          <g id="Skills" transform="translate(0.000000, 734.000000)">
              <g id="Group-10" transform="translate(42.000000, 245.000000)">
                  <g id="Group-8">
                      <g id="Science">
                          <path d="M16.990302,21.4525379 C18.3222529,22.0095733 19.7044237,22.4379325 21.1179462,22.7317648 L21.117946,22.7317652 C21.7326044,21.5744636 23.169061,21.1345617 24.3263625,21.7492202 C24.620816,21.905608 24.8790049,22.1222968 25.0840979,22.3851613 C25.2094184,22.2823784 25.3159779,22.1586538 25.399046,22.0194805 C25.8815729,21.1706767 25.4050076,19.8541305 24.2298095,18.3458017 C24.0458721,18.1012378 24.0779279,17.7569363 24.3038517,17.5505324 C24.5487517,17.3207347 24.7890214,17.0873805 25.0246613,16.8504689 C25.2575488,16.6149912 25.6372332,16.6128915 25.872714,16.8457793 C25.8936949,16.8665295 25.9131156,16.8887999 25.9308177,16.912409 C27.7738273,19.344359 28.473235,21.6366898 27.5715523,23.2048725 C27.0770887,23.9824061 26.2987937,24.5363582 25.4022081,24.7489109 C24.9036864,25.9619229 23.5162159,26.5411281 22.3032097,26.0426064 C21.7665532,25.8220515 21.3292195,25.4126447 21.0737735,24.8916897 C17.4596505,24.375182 13.6343697,22.7207358 10.472787,20.8020743 C11.1200968,25.4021166 12.5802564,28.6153858 14.2810834,28.6153858 C15.2864372,28.6153858 16.2061834,27.4851974 16.9255026,25.6162551 C17.0346107,25.323187 17.3526039,25.1652735 17.6520353,25.2554627 C17.9528545,25.346555 18.2541686,25.4326396 18.5559834,25.5137165 C18.8773306,25.5992634 19.0684844,25.9291165 18.9829375,26.2504613 C18.9758941,26.276919 18.9670543,26.3028655 18.9564796,26.3281199 C17.7684046,29.205993 16.1148527,30.9999988 14.2810835,30.9999988 C10.489545,30.9999988 7.57930078,23.4540622 7.74676039,14.9073026 L7.74676199,14.9073014 C6.55642757,15.8203825 5.46215142,16.8522772 4.48085238,17.9870322 C5.08606779,19.1365539 4.64481916,20.5590486 3.49529683,21.1642639 C3.31667126,21.258309 3.12668299,21.3289687 2.93001481,21.3745012 C2.95243127,21.5587437 3.01067622,21.7368208 3.10146866,21.8986992 C3.59114943,22.7398723 4.95628212,22.9866204 6.83291481,22.7261608 C7.1353919,22.6894961 7.41606233,22.8891111 7.48069554,23.1868685 C7.55767867,23.5164623 7.64002779,23.8428762 7.72774169,24.1661108 C7.81591584,24.4861322 7.62796702,24.8170393 7.30794507,24.9052164 C7.27942907,24.9130733 7.25037199,24.9188145 7.22101094,24.9223932 C4.21287825,25.300474 1.89443594,24.7589278 0.993230171,23.1935471 C0.601196959,22.4427568 0.497664709,21.5743931 0.702187805,20.7524758 L0.702187639,20.7524756 C-0.226095438,19.8353764 -0.235162938,18.3394058 0.681936829,17.4111228 C1.22121104,16.8652718 1.99197298,16.6152872 2.74896318,16.7407179 C5.0031401,13.8353026 8.36622279,11.325316 11.5775843,9.54961218 C7.39598241,7.84860641 3.99188433,7.5226891 3.16299202,8.98040449 C2.68189587,9.82694295 3.15422856,11.1378853 4.32167664,12.6407891 C4.50467082,12.8847478 4.47236167,13.2278116 4.24703817,13.433316 C4.0016213,13.663829 3.76147086,13.8974021 3.52658624,14.1340352 C3.29410713,14.3698236 2.91450318,14.3725069 2.67871242,14.1400281 C2.65733917,14.1189549 2.63757852,14.0963064 2.6195972,14.0722735 C0.78535105,11.6459273 0.0905337426,9.36015422 0.990368358,7.79519076 C2.89144336,4.48898114 10.9114414,5.81530422 18.0880607,10.1936369 L18.0880604,10.1936353 C17.8983393,8.75249891 17.5773062,7.33172122 17.1289681,5.94901987 C15.8183775,5.88053491 14.8114558,4.76257237 14.8799419,3.45198776 C14.894727,3.16904718 14.9599929,2.89103083 15.0726576,2.63106602 C14.836685,2.47725951 14.5626623,2.39194512 14.2810845,2.3846178 C13.2789499,2.3846178 12.3622441,3.50747356 11.6440576,5.36538703 C11.5349805,5.65676077 11.2184485,5.81342225 10.9206249,5.723437 C10.6189311,5.63166925 10.3174543,5.54524662 10.0161999,5.46416969 C9.69498385,5.3790276 9.50360773,5.04960908 9.58874983,4.72839065 C9.59591852,4.70134524 9.60496491,4.67483273 9.6158232,4.64904615 C10.8027655,1.78464615 12.4523232,4.27008856e-16 14.2810847,4.27008856e-16 C15.266992,0.0471292969 16.1915312,0.49247792 16.8429366,1.23403846 L16.8429364,1.23403849 C18.1337108,1.00485609 19.3658774,1.86544292 19.5950568,3.15621734 C19.7148074,3.83066407 19.5373614,4.52396119 19.1083186,5.05794811 L19.1083184,5.05794741 C20.3604203,8.59963779 20.9367401,12.3448551 20.8073568,16.0991339 C24.3381972,13.3270186 26.3021665,10.5467359 25.4606357,9.10136087 C24.9692261,8.25744549 23.5969395,8.0118301 21.710828,8.27652241 C21.4080033,8.31379084 21.1266903,8.11410089 21.0619742,7.81593394 C20.9852295,7.48685702 20.9030396,7.15996798 20.8154049,6.83526087 C20.7277012,6.51507611 20.9161645,6.1844158 21.2363498,6.09671561 C21.2643228,6.08905336 21.2928138,6.08342567 21.3215992,6.07987677 C24.3392703,5.697146 26.6657011,6.23767869 27.5687549,7.80639792 C29.8481492,11.7657597 22.6207972,18.3517633 16.990303,21.4525383 L16.990302,21.4525379 Z M18.3793405,13.2077302 L18.3793396,13.2077296 C17.07604,12.3214694 15.7173279,11.5195709 14.3115434,10.8069584 L14.3115421,10.8069591 C12.8893993,11.5015677 11.51319,12.2865175 10.191356,13.1569856 L10.1913556,13.1569924 C10.0934206,14.6989801 10.0906932,16.2455343 10.1831891,17.7878558 C11.4849029,18.677061 12.8433945,19.4801458 14.2499718,20.1919654 L14.2499713,20.1919657 C15.6723646,19.4985434 17.048538,18.7140824 18.3699309,17.8434772 C18.4693366,16.299999 18.4724789,14.7518292 18.379338,13.2079636 L18.3793405,13.2077302 Z" id="Shape"></path>
                      </g>
                  </g>
              </g>
          </g>
      </g>
  </g>
</svg>