<svg width="18px" height="28px" viewBox="0 0 18 28" version="1.1" xmlns="http://www.w3.org/2000/svg" xmlns:xlink="http://www.w3.org/1999/xlink">
  <g id="Home" stroke="none" stroke-width="1" fill="none" fill-rule="evenodd">
    <g id="Desktop" transform="translate(-46.000000, -1162.000000)" fill="#4298CC">
      <g id="Skills" transform="translate(0.000000, 734.000000)">
        <g id="Group-10" transform="translate(42.000000, 245.000000)">
          <g id="Group-9" transform="translate(4.000000, 183.000000)">
            <g id="Phone">
              <path d="M14.5833333,28 L2.91666667,28 L2.91666654,28 C1.30583821,27.9999999 -1.27491582e-07,26.6941617 -1.27491582e-07,25.0833333 C-1.27491582e-07,25.0833333 -1.27491582e-07,25.0833333 -1.27491582e-07,25.0833333 L-1.27491582e-07,2.91666667 L-1.27491549e-07,2.91666711 C-3.70719966e-07,1.30583877 1.30583821,4.40404413e-07 2.91666654,4.40404413e-07 L14.5833332,4.40404413e-07 L14.5833331,4.40404417e-07 C16.1941614,3.69992584e-07 17.4999997,1.30583877 17.4999997,2.91666711 L17.4999997,25.0833338 C17.4999997,26.6941621 16.1941614,28.0000004 14.5833331,28.0000004 L14.5833333,28 Z M8.75,22.1666667 C7.78350409,22.1666667 6.99999992,22.9501708 6.99999992,23.9166667 C6.99999997,24.8831625 7.78350409,25.6666667 8.74999992,25.6666667 C9.71649576,25.6666666 10.4999999,24.8831625 10.4999999,23.9166667 C10.4999999,22.9501709 9.71649576,22.1666667 8.74999992,22.1666667 Z" id="Shape"></path>
            </g>
          </g>
        </g>
      </g>
    </g>
  </g>
</svg>